<svg xmlns="http://www.w3.org/2000/svg" version="1.1" width="512" height="512" x="0" y="0" viewBox="0 0 74 74">
    <g>
        <path xmlns="http://www.w3.org/2000/svg" d="m60.41 43.44a1 1 0 0 1 -1-1v-2.97a1 1 0 0 1 2 0v2.97a1 1 0 0 1 -1 1z" fill="#c3c5d5" data-original="#000000" style="" />
        <path xmlns="http://www.w3.org/2000/svg" d="m28.48 72a1 1 0 0 1 -1-1v-68a1 1 0 0 1 1.1-1l31.93 3.23a1 1 0 0 1 .9 1v16.33a1 1 0 1 1 -2 0v-15.426l-29.93-3.028v65.749l29.93-4.055v-16.36a1 1 0 0 1 2 0v17.23a1 1 0 0 1 -.865.991l-31.93 4.33a1.02 1.02 0 0 1 -.135.009z" fill="#c3c5d5" data-original="#000000" style="" />
        <path xmlns="http://www.w3.org/2000/svg" d="m60.41 33.47a1 1 0 0 1 -1-1v-2.91a1 1 0 0 1 2 0v2.91a1 1 0 0 1 -1 1z" fill="#c3c5d5" data-original="#000000" style="" />
        <path xmlns="http://www.w3.org/2000/svg" d="m13.659 68.306a1 1 0 0 1 -1-1v-61.106a1 1 0 0 1 1-1h14.82a1 1 0 0 1 0 2h-13.82v60.106a1 1 0 0 1 -1 1z" fill="#c3c5d5" data-original="#000000" style="" />
        <path xmlns="http://www.w3.org/2000/svg" d="m19.307 68.306a1 1 0 0 1 -1-1v-55.265a1 1 0 0 1 1-1h9.165a1 1 0 0 1 0 2h-8.165v54.265a1 1 0 0 1 -1 1z" fill="#c3c5d5" data-original="#000000" style="" />
        <path xmlns="http://www.w3.org/2000/svg" d="m28.472 68.306h-25.423a1 1 0 0 1 0-2h25.423a1 1 0 0 1 0 2z" fill="#c3c5d5" data-original="#000000" style="" />
        <path xmlns="http://www.w3.org/2000/svg" d="m70.951 68.306h-15.308a1 1 0 0 1 0-2h15.308a1 1 0 0 1 0 2z" fill="#c3c5d5" data-original="#000000" style="" />
        <path xmlns="http://www.w3.org/2000/svg" d="m35.42 40.614a3.614 3.614 0 1 1 3.614-3.614 3.618 3.618 0 0 1 -3.614 3.614zm0-5.228a1.614 1.614 0 1 0 1.614 1.614 1.616 1.616 0 0 0 -1.614-1.614z" fill="#c3c5d5" data-original="#000000" style="" />
    </g>
</svg>
