<svg xmlns="http://www.w3.org/2000/svg" version="1.1" width="512" height="512" x="0" y="0" viewBox="0 0 74 74">
    <g>
        <path xmlns="http://www.w3.org/2000/svg" d="m54 72h-34a1 1 0 0 1 -1-1v-68a1 1 0 0 1 1.256-.967l34 9a1 1 0 0 1 .744.967v59a1 1 0 0 1 -1 1zm-33-2h32v-57.23l-32-8.47z" fill="#c3c5d5" data-original="#000000" style="" />
        <path xmlns="http://www.w3.org/2000/svg" d="m71 72h-17a1 1 0 0 1 -1-1v-48a1 1 0 0 1 1-1h17a1 1 0 0 1 1 1v48a1 1 0 0 1 -1 1zm-16-2h15v-46h-15z" fill="#c3c5d5" data-original="#000000" style="" />
        <path xmlns="http://www.w3.org/2000/svg" d="m3 41.47a1 1 0 0 1 -1-1v-2.91a1 1 0 0 1 2 0v2.91a1 1 0 0 1 -1 1z" fill="#c3c5d5" data-original="#000000" style="" />
        <path xmlns="http://www.w3.org/2000/svg" d="m20 72h-17a1 1 0 0 1 -1-1v-13.56a1 1 0 0 1 2 0v12.56h15v-56h-15v16.56a1 1 0 1 1 -2 0v-17.56a1 1 0 0 1 1-1h17a1 1 0 0 1 1 1v58a1 1 0 0 1 -1 1z" fill="#c3c5d5" data-original="#000000" style="" />
        <path xmlns="http://www.w3.org/2000/svg" d="m3 51.44a1 1 0 0 1 -1-1v-2.97a1 1 0 0 1 2 0v2.97a1 1 0 0 1 -1 1z" fill="#c3c5d5" data-original="#000000" style="" />
        <path xmlns="http://www.w3.org/2000/svg" d="m20 26.667h-9.667a1 1 0 0 1 -1-1v-5.334a1 1 0 0 1 1-1h9.667a1 1 0 0 1 1 1v5.334a1 1 0 0 1 -1 1zm-8.667-2h7.667v-3.334h-7.667z" fill="#c3c5d5" data-original="#000000" style="" />
        <path xmlns="http://www.w3.org/2000/svg" d="m20 39.333h-9.667a1 1 0 0 1 -1-1v-5.333a1 1 0 0 1 1-1h9.667a1 1 0 0 1 1 1v5.333a1 1 0 0 1 -1 1zm-8.667-2h7.667v-3.333h-7.667z" fill="#c3c5d5" data-original="#000000" style="" />
        <path xmlns="http://www.w3.org/2000/svg" d="m20 52h-9.667a1 1 0 0 1 -1-1v-5.333a1 1 0 0 1 1-1h9.667a1 1 0 0 1 1 1v5.333a1 1 0 0 1 -1 1zm-8.667-2h7.667v-3.333h-7.667z" fill="#c3c5d5" data-original="#000000" style="" />
        <path xmlns="http://www.w3.org/2000/svg" d="m20 64.667h-9.667a1 1 0 0 1 -1-1v-5.334a1 1 0 0 1 1-1h9.667a1 1 0 0 1 1 1v5.334a1 1 0 0 1 -1 1zm-8.667-2h7.667v-3.334h-7.667z" fill="#c3c5d5" data-original="#000000" style="" />
        <path xmlns="http://www.w3.org/2000/svg" d="m47.375 25.562h-5.937a1 1 0 0 1 -1-1v-5.937a1 1 0 0 1 1-1h5.937a1 1 0 0 1 1 1v5.937a1 1 0 0 1 -1 1zm-4.937-2h3.937v-3.937h-3.937z" fill="#c3c5d5" data-original="#000000" style="" />
        <path xmlns="http://www.w3.org/2000/svg" d="m32.562 25.562h-5.937a1 1 0 0 1 -1-1v-5.937a1 1 0 0 1 1-1h5.937a1 1 0 0 1 1 1v5.937a1 1 0 0 1 -1 1zm-4.937-2h3.937v-3.937h-3.937z" fill="#c3c5d5" data-original="#000000" style="" />
        <path xmlns="http://www.w3.org/2000/svg" d="m47.375 37.969h-5.937a1 1 0 0 1 -1-1v-5.938a1 1 0 0 1 1-1h5.937a1 1 0 0 1 1 1v5.938a1 1 0 0 1 -1 1zm-4.937-2h3.937v-3.938h-3.937z" fill="#c3c5d5" data-original="#000000" style="" />
        <path xmlns="http://www.w3.org/2000/svg" d="m32.562 37.969h-5.937a1 1 0 0 1 -1-1v-5.938a1 1 0 0 1 1-1h5.937a1 1 0 0 1 1 1v5.938a1 1 0 0 1 -1 1zm-4.937-2h3.937v-3.938h-3.937z" fill="#c3c5d5" data-original="#000000" style="" />
        <path xmlns="http://www.w3.org/2000/svg" d="m47.375 50.375h-5.937a1 1 0 0 1 -1-1v-5.937a1 1 0 0 1 1-1h5.937a1 1 0 0 1 1 1v5.937a1 1 0 0 1 -1 1zm-4.937-2h3.937v-3.937h-3.937z" fill="#c3c5d5" data-original="#000000" style="" />
        <path xmlns="http://www.w3.org/2000/svg" d="m32.562 50.375h-5.937a1 1 0 0 1 -1-1v-5.937a1 1 0 0 1 1-1h5.937a1 1 0 0 1 1 1v5.937a1 1 0 0 1 -1 1zm-4.937-2h3.937v-3.937h-3.937z" fill="#c3c5d5" data-original="#000000" style="" />
        <path xmlns="http://www.w3.org/2000/svg" d="m47.375 62.781h-5.937a1 1 0 0 1 -1-1v-5.937a1 1 0 0 1 1-1h5.937a1 1 0 0 1 1 1v5.937a1 1 0 0 1 -1 1zm-4.937-2h3.937v-3.937h-3.937z" fill="#c3c5d5" data-original="#000000" style="" />
        <path xmlns="http://www.w3.org/2000/svg" d="m32.562 62.781h-5.937a1 1 0 0 1 -1-1v-5.937a1 1 0 0 1 1-1h5.937a1 1 0 0 1 1 1v5.937a1 1 0 0 1 -1 1zm-4.937-2h3.937v-3.937h-3.937z" fill="#c3c5d5" data-original="#000000" style="" />
        <path xmlns="http://www.w3.org/2000/svg" d="m66.542 35.333h-8.084a1 1 0 0 1 -1-1v-4.666a1 1 0 0 1 1-1h8.084a1 1 0 0 1 1 1v4.666a1 1 0 0 1 -1 1zm-7.084-2h6.084v-2.666h-6.084z" fill="#c3c5d5" data-original="#000000" style="" />
        <path xmlns="http://www.w3.org/2000/svg" d="m66.542 45.333h-8.084a1 1 0 0 1 -1-1v-4.666a1 1 0 0 1 1-1h8.084a1 1 0 0 1 1 1v4.666a1 1 0 0 1 -1 1zm-7.084-2h6.084v-2.666h-6.084z" fill="#c3c5d5" data-original="#000000" style="" />
        <path xmlns="http://www.w3.org/2000/svg" d="m66.542 55.333h-8.084a1 1 0 0 1 -1-1v-4.666a1 1 0 0 1 1-1h8.084a1 1 0 0 1 1 1v4.666a1 1 0 0 1 -1 1zm-7.084-2h6.084v-2.666h-6.084z" fill="#c3c5d5" data-original="#000000" style="" />
        <path xmlns="http://www.w3.org/2000/svg" d="m66.542 65.333h-8.084a1 1 0 0 1 -1-1v-4.666a1 1 0 0 1 1-1h8.084a1 1 0 0 1 1 1v4.666a1 1 0 0 1 -1 1zm-7.084-2h6.084v-2.666h-6.084z" fill="#c3c5d5" data-original="#000000" style="" />
    </g>
</svg>
