<svg height="512pt" viewBox="-68 0 512 512" width="512pt" xmlns="http://www.w3.org/2000/svg">
    <path d="m375.285156 187.644531c0 47.527344-29.941406 114.679688-89.015625 199.605469-43.175781 62.066406-85.644531 110.101562-87.429687 112.117188l-11.195313 12.632812-11.195312-12.632812c-1.789063-2.015626-44.253907-50.050782-87.433594-112.117188-59.070313-84.925781-89.015625-152.078125-89.015625-199.605469 0-103.464843 84.179688-187.644531 187.644531-187.644531 103.464844 0 187.640625 84.179688 187.640625 187.644531zm0 0" fill="#ff4f19" />
    <path d="m375.285156 187.644531c0 47.527344-29.941406 114.679688-89.015625 199.605469-43.175781 62.066406-85.644531 110.101562-87.429687 112.117188l-11.195313 12.632812v-512c103.464844 0 187.640625 84.179688 187.640625 187.644531zm0 0" fill="#dd2b19" />
    <path d="m298.394531 180.101562c0 61.066407-49.683593 110.75-110.75 110.75-61.070312 0-110.75-49.683593-110.75-110.75 0-61.070312 49.679688-110.75 110.75-110.75 61.066407 0 110.75 49.679688 110.75 110.75zm0 0" fill="#fff" />
    <path d="m298.394531 180.101562c0 61.066407-49.683593 110.75-110.75 110.75v-221.5c61.066407 0 110.75 49.679688 110.75 110.75zm0 0" fill="#eee" />
</svg>