<?xml version="1.0" encoding="utf-8"?>
<svg viewBox="28.379 241.181 285 286" xmlns="http://www.w3.org/2000/svg">
  <rect x="28.379" y="241.181" width="285" height="286" style="fill: rgb(255, 255, 255);"/>
  <g transform="matrix(0.1, 0, 0, -0.1, -91.621286, 984.181045)" fill="#00adb5" stroke="none">
    <path d="M1200 6000 l0 -1430 1425 0 1425 0 0 1430 0 1430 -1425 0 -1425 0 0 -1430z m1574 858 l16 -22 0 -83 0 -83 185 0 186 0 28 -14 c15 -8 32 -26 39 -41 l12 -26 0 -589 0 -589 -12 -26 c-7 -15 -24 -33 -39 -41 l-28 -14 -186 0 -185 0 0 -83 0 -83 -16 -22 c-8 -12 -24 -22 -35 -22 -11 0 -167 34 -347 75 l-326 75 -26 25 -25 25 -1 663 -2 662 10 31 9 31 24 13 c30 16 627 157 672 159 l32 1 15 -22z"/>
    <path d="M2458 6782 l-237 -55 -3 -21 -3 -21 -23 -3 c-13 -2 -37 2 -53 8 l-29 12 -25 -6 -25 -6 0 -690 0 -690 27 -6 26 -7 18 12 c35 21 89 10 89 -18 l0 -18 255 -58 c140 -32 258 -56 262 -52 7 8 11 1528 4 1625 l-3 52 -22 -1 c-11 -1 -128 -26 -258 -57z m-243 -222 l0 -15 -34 -3 c-36 -4 -58 9 -46 28 l7 11 36 -3 37 -3 0 -15z m0 -140 l0 -15 -34 -3 c-36 -4 -58 9 -46 28 l7 11 36 -3 37 -3 0 -15z m0 -140 l0 -15 -34 -3 c-36 -4 -58 9 -46 28 l7 11 36 -3 37 -3 0 -15z m0 -140 l0 -15 -34 -3 c-36 -4 -58 9 -46 28 l7 11 36 -3 37 -3 0 -15z m395 -25 c0 -9 -11 -20 -25 -25 l-25 -10 0 -80 0 -80 25 -10 c14 -5 25 -16 25 -25 l0 -15 -19 0 c-10 0 -30 12 -45 26 l-26 27 0 69 c0 38 5 79 12 91 15 28 38 46 61 47 l17 0 0 -15z m-395 -115 l0 -15 -34 -3 c-36 -4 -58 9 -46 28 l7 11 36 -3 37 -3 0 -15z m0 -140 l0 -15 -34 -3 c-36 -4 -58 9 -46 28 l7 11 36 -3 37 -3 0 -15z m0 -140 l0 -15 -34 -3 c-36 -4 -58 9 -46 28 l7 11 36 -3 37 -3 0 -15z m0 -140 l0 -15 -34 -3 c-36 -4 -58 9 -46 28 l7 11 36 -3 37 -3 0 -15z m0 -140 l0 -15 -34 -3 c-36 -4 -58 9 -46 28 l7 11 36 -3 37 -3 0 -15z"/>
    <path d="M2790 5995 l0 -625 189 0 190 0 13 13 13 14 -1 589 c-1 324 -2 599 -3 612 l-1 22 -200 0 -200 0 0 -625z"/>
  </g>
</svg>