<svg viewBox="28.379 241.181 867.244 286" xmlns="http://www.w3.org/2000/svg">
  <g transform="matrix(0.1, 0, 0, -0.1, -91.621286, 984.181045)" fill="#00adb5" stroke="none">
    <path d="M1200 6000 l0 -1430 1425 0 1425 0 0 1430 0 1430 -1425 0 -1425 0 0 -1430z m1574 858 l16 -22 0 -83 0 -83 185 0 186 0 28 -14 c15 -8 32 -26 39 -41 l12 -26 0 -589 0 -589 -12 -26 c-7 -15 -24 -33 -39 -41 l-28 -14 -186 0 -185 0 0 -83 0 -83 -16 -22 c-8 -12 -24 -22 -35 -22 -11 0 -167 34 -347 75 l-326 75 -26 25 -25 25 -1 663 -2 662 10 31 9 31 24 13 c30 16 627 157 672 159 l32 1 15 -22z" />
    <path d="M2458 6782 l-237 -55 -3 -21 -3 -21 -23 -3 c-13 -2 -37 2 -53 8 l-29 12 -25 -6 -25 -6 0 -690 0 -690 27 -6 26 -7 18 12 c35 21 89 10 89 -18 l0 -18 255 -58 c140 -32 258 -56 262 -52 7 8 11 1528 4 1625 l-3 52 -22 -1 c-11 -1 -128 -26 -258 -57z m-243 -222 l0 -15 -34 -3 c-36 -4 -58 9 -46 28 l7 11 36 -3 37 -3 0 -15z m0 -140 l0 -15 -34 -3 c-36 -4 -58 9 -46 28 l7 11 36 -3 37 -3 0 -15z m0 -140 l0 -15 -34 -3 c-36 -4 -58 9 -46 28 l7 11 36 -3 37 -3 0 -15z m0 -140 l0 -15 -34 -3 c-36 -4 -58 9 -46 28 l7 11 36 -3 37 -3 0 -15z m395 -25 c0 -9 -11 -20 -25 -25 l-25 -10 0 -80 0 -80 25 -10 c14 -5 25 -16 25 -25 l0 -15 -19 0 c-10 0 -30 12 -45 26 l-26 27 0 69 c0 38 5 79 12 91 15 28 38 46 61 47 l17 0 0 -15z m-395 -115 l0 -15 -34 -3 c-36 -4 -58 9 -46 28 l7 11 36 -3 37 -3 0 -15z m0 -140 l0 -15 -34 -3 c-36 -4 -58 9 -46 28 l7 11 36 -3 37 -3 0 -15z m0 -140 l0 -15 -34 -3 c-36 -4 -58 9 -46 28 l7 11 36 -3 37 -3 0 -15z m0 -140 l0 -15 -34 -3 c-36 -4 -58 9 -46 28 l7 11 36 -3 37 -3 0 -15z m0 -140 l0 -15 -34 -3 c-36 -4 -58 9 -46 28 l7 11 36 -3 37 -3 0 -15z" />
    <path d="M2790 5995 l0 -625 189 0 190 0 13 13 13 14 -1 589 c-1 324 -2 599 -3 612 l-1 22 -200 0 -200 0 0 -625z" />
  </g>
  <g transform="matrix(0.1, 0, 0, -0.1, -104.246378, 991.858474)" fill="#eeeeee" stroke="none">
    <path d="M5927 6485 c-60 -23 -98 -55 -118 -99 l-19 -41 0 -48 0 -48 19 -38 20 -37 43 -29 c23 -16 103 -47 176 -71 73 -23 148 -53 168 -65 l34 -24 21 -43 21 -43 -7 -37 -7 -37 -38 -36 -37 -36 -49 -14 -49 -14 -90 0 -90 1 -59 27 c-32 15 -62 24 -67 21 -34 -21 32 -64 131 -85 l54 -12 88 5 88 5 55 28 56 27 26 40 26 39 4 52 4 52 -23 45 -23 45 -41 28 -41 29 -127 38 c-69 21 -146 50 -170 64 l-43 25 -18 37 -17 37 6 46 c3 25 14 57 24 71 10 14 36 34 58 45 l39 20 90 0 90 0 55 -27 54 -27 13 11 13 11 -12 15 c-7 8 -33 24 -58 35 l-45 20 -95 4 -95 3 -38 -15z" />
    <path d="M6745 6473 c-28 -10 -65 -29 -82 -41 l-32 -23 -30 -62 -31 -62 -11 -97 -11 -98 11 -97 11 -98 31 -63 31 -64 45 -28 c24 -16 67 -34 95 -40 l50 -12 78 4 78 5 55 27 c30 14 60 33 67 41 l12 15 -12 15 -12 15 -29 -24 c-16 -13 -45 -30 -66 -38 l-38 -13 -85 0 -85 0 -36 13 c-20 7 -53 28 -72 47 l-35 34 -19 53 -18 53 0 155 0 155 18 51 18 51 36 36 c19 20 52 42 72 49 l36 13 85 0 85 0 38 -13 c21 -8 50 -25 66 -38 l29 -24 12 15 12 15 -12 15 c-7 8 -37 27 -68 42 l-56 27 -90 3 -91 3 -50 -17z" />
    <path d="M7447 6104 c-92 -214 -167 -393 -167 -397 0 -5 10 -7 21 -5 l22 3 145 339 146 339 8 -19 c5 -10 66 -154 136 -319 l128 -300 -218 -3 -218 -2 0 -20 0 -20 251 0 251 0 -5 13 c-3 6 -74 172 -157 367 -84 195 -157 368 -164 384 l-12 30 -167 -390z" />
    <path d="M9095 6473 c-28 -10 -65 -29 -82 -41 l-32 -23 -30 -62 -31 -62 -11 -97 -11 -98 11 -97 11 -98 31 -63 31 -64 45 -28 c24 -16 67 -34 95 -40 l50 -12 78 4 78 5 55 27 c30 14 60 33 67 41 l12 15 -12 15 -12 15 -29 -24 c-16 -13 -45 -30 -66 -38 l-38 -13 -85 0 -85 0 -36 13 c-20 7 -53 28 -72 47 l-35 34 -19 53 -18 53 0 155 0 155 18 51 18 51 36 36 c19 20 52 42 72 49 l36 13 85 0 85 0 46 -18 c26 -10 54 -26 63 -36 l17 -19 -168 -138 -168 -139 28 -3 27 -3 25 18 c73 55 304 249 305 256 1 23 -46 69 -97 94 l-57 27 -90 3 -91 3 -50 -17z" />
    <path d="M4630 6090 l0 -390 20 0 20 0 0 390 0 390 -20 0 -20 0 0 -390z" />
    <path d="M4990 6091 l0 -391 20 0 20 0 2 348 3 347 215 -347 215 -347 23 -1 22 0 0 390 0 390 -20 0 -20 0 -2 -349 -3 -350 -216 347 -215 347 -22 3 -22 3 0 -390z" />
    <path d="M8170 5955 l0 -525 20 0 20 0 0 505 0 505 93 0 c50 0 123 -7 161 -15 l70 -15 39 -26 39 -25 19 -42 c10 -23 19 -62 19 -86 l0 -45 -21 -43 -21 -43 -64 -38 -64 -39 13 -17 13 -17 48 27 c61 34 112 87 127 131 l11 35 -4 68 -4 69 -30 43 -30 43 -54 27 c-30 16 -79 33 -109 38 -29 6 -107 10 -172 10 l-119 0 0 -525z" />
  </g>
</svg>