<svg viewBox="-42 0 512 512" xmlns="http://www.w3.org/2000/svg">
    <path d="M333.7 123.3c0 33.9-12.2 63.2-36.2 87.2-24 24-53.3 36.1-87.1 36.1h-.1c-33.9 0-63.2-12.1-87.1-36.1-24-24-36.2-53.3-36.2-87.2 0-33.9 12.2-63.2 36.2-87.2 24-24 53.2-36 87-36.1h.2c33.8 0 63.2 12.2 87.1 36.1 24 24 36.2 53.3 36.2 87.2zm0 0" fill="#ffbb85" />
    <path d="M427.2 424c0 26.7-8.5 48.3-25.3 64.3-16.5 15.7-38.4 23.7-65 23.7H90.2c-26.6 0-48.5-8-65-23.7C8.5 472.3 0 450.7 0 423.9c0-10.2.3-20.4 1-30.2a302.7 302.7 0 0112.1-64.9c3.3-10.3 7.8-20.5 13.4-30.3 5.8-10.2 12.5-19 20.1-26.3a89 89 0 0129-18.2c11.2-4.4 23.7-6.7 37-6.7 5.2 0 10.3 2.2 20 8.5l21 13.5c6.6 4.3 15.7 8.3 27 11.9a107.7 107.7 0 0033 5.3c11 0 22-1.8 33-5.3 11.2-3.6 20.3-7.6 27-12l21-13.4c9.7-6.3 14.7-8.5 20-8.5 13.3 0 25.7 2.3 37 6.7a89 89 0 0128.9 18.2c7.6 7.3 14.4 16.1 20.2 26.3 5.5 9.8 10 20 13.3 30.3a305.5 305.5 0 0112.1 64.9c.7 9.8 1 20 1 30.2zm0 0" fill="#6aa9ff" />
    <path d="M210.4 246.6h-.1V0c34 0 63.3 12.2 87.2 36.1 24 24 36.2 53.3 36.2 87.2 0 33.9-12.2 63.2-36.2 87.2-24 24-53.3 36.1-87.1 36.1zm0 0" fill="#f5a86c" />
    <path d="M427.2 424c0 26.7-8.5 48.3-25.3 64.3-16.5 15.7-38.4 23.7-65 23.7H210.2V286.5h3.3c11 0 22-1.8 33-5.3 11.2-3.6 20.3-7.6 27-12l21-13.4c9.7-6.3 14.7-8.5 20-8.5 13.3 0 25.7 2.3 37 6.7a89 89 0 0128.9 18.2c7.6 7.3 14.4 16.1 20.2 26.3 5.5 9.8 10 20 13.3 30.3a305.5 305.5 0 0112.1 64.9c.7 9.8 1 20 1 30.2zm0 0" fill="#2682ff" />
</svg>