<?xml version="1.0" encoding="iso-8859-1"?>
<!-- Generator: Adobe Illustrator 19.0.0, SVG Export Plug-In . SVG Version: 6.00 Build 0)  -->
<svg version="1.1" id="Layer_1" xmlns="http://www.w3.org/2000/svg" xmlns:xlink="http://www.w3.org/1999/xlink" x="0px" y="0px"
	 viewBox="0 0 512 512" style="enable-background:new 0 0 512 512;" xml:space="preserve">
<ellipse style="fill:#785550;" cx="438.86" cy="207.24" rx="32.508" ry="28.444"/>
<path style="fill:#694B4B;" d="M430.73,207.238c0-11.931,8.414-22.112,20.317-26.335c-3.77-1.338-7.872-2.109-12.19-2.109
	c-17.954,0-32.508,12.735-32.508,28.444c0,15.709,14.554,28.444,32.508,28.444c4.318,0,8.421-0.771,12.19-2.109
	C439.144,229.35,430.73,219.169,430.73,207.238z"/>
<path style="fill:#E6AF78;" d="M498.522,369.023l-26.3-13.149c-5.507-2.753-8.986-8.382-8.985-14.54l0.001-24.381h-48.762v24.382
	c0,6.156-3.478,11.784-8.985,14.538l-26.3,13.15c-8.26,4.13-13.477,12.572-13.477,21.807v48.028c0,4.488,3.638,8.127,8.127,8.127
	h130.032c4.489,0,8.127-3.639,8.127-8.127V390.83C512,381.595,506.782,373.153,498.522,369.023z"/>
<path style="fill:#D29B6E;" d="M438.857,349.46c8.751,0,17.132-1.804,24.816-5.015c-0.202-1.024-0.437-2.043-0.437-3.111
	l0.001-24.381h-48.762v24.382c0,1.073-0.235,2.097-0.439,3.126C421.726,347.655,430.104,349.46,438.857,349.46z"/>
<path style="fill:#D5DCED;" d="M498.522,369.023l-18.736-9.368c-8.688,13.416-23.756,22.313-40.929,22.313
	s-32.242-8.898-40.93-22.314l-18.736,9.369c-8.26,4.13-13.477,12.572-13.477,21.807v48.027c0,4.488,3.639,8.127,8.127,8.127h130.032
	c4.488,0,8.127-3.639,8.127-8.127V390.83C512,381.595,506.782,373.153,498.522,369.023z"/>
<circle style="fill:#5A4146;" cx="438.86" cy="260.06" r="56.889"/>
<path style="fill:#694B4B;" d="M495.213,252.177c-3.126-23.183-20.888-42.565-43.731-47.609c-4.167-0.92-8.269-1.368-12.27-1.393
	c-27.255-0.17-36.356,37.463-11.854,49.401c1.317,0.642,2.153,0.93,2.153,0.93l28.31,51.255c0,0,7.544,0.515,15.152,0.75
	C488.7,293.686,498.15,273.961,495.213,252.177z"/>
<path style="fill:#F0C087;" d="M438.857,333.206L438.857,333.206c-24.792,0-45.262-18.501-48.357-42.45
	c-0.448-3.47,1.219-6.872,4.343-8.448c3.742-1.888,9.179-5.07,14.385-9.715c5.797-5.173,9.198-10.628,11.119-14.632
	c1.654-3.449,5.457-5.399,9.163-4.453c28.615,7.298,48.096,22.186,55.163,28.263c1.898,1.632,2.991,4.038,2.796,6.534
	C485.501,313.43,464.489,333.206,438.857,333.206z"/>
<path style="fill:#E6AF78;" d="M484.673,281.77c-7.067-6.078-26.549-20.965-55.163-28.263c-3.706-0.945-7.509,1.005-9.163,4.453
	c-1.455,3.033-3.859,6.897-7.427,10.841c-0.001,0.009-0.003,0.018-0.004,0.027c-1.107,1.255-2.286,2.512-3.688,3.764
	c-5.206,4.646-10.643,7.827-14.385,9.715c-3.124,1.576-4.791,4.979-4.343,8.448c2.78,21.508,19.611,38.5,40.964,41.764
	c-9.73-6.62-16.988-15.593-16.988-31.822V289.11c1.846-1.363,3.705-2.722,5.573-4.389c4.517-4.031,8.46-8.693,11.623-13.712
	c21.89,6.831,36.731,18.208,42.357,23.046c1.54,1.351,5.362,4.874,9.834,9.069c1.924-4.63,3.196-9.598,3.605-14.819
	C487.664,285.809,486.571,283.402,484.673,281.77z"/>
<path style="fill:#C7CFE2;" d="M507.046,376.18c3.131,4.154,4.954,9.252,4.954,14.65v48.027c0,4.488-3.639,8.127-8.127,8.127
	h-24.381v-40.95c0-4.938,2.245-9.608,6.1-12.692L507.046,376.18z"/>
<path style="fill:#5A4146;" d="M24.381,235.683v5.703c0,6.988,1.127,13.93,3.336,20.56l12.918,38.753h24.381v-89.397H48.762
	C35.297,211.302,24.381,222.217,24.381,235.683z"/>
<path style="fill:#694B4B;" d="M135.657,252.565l-13.752,48.133L56.889,243.81c-8.977,0-16.254-7.277-16.254-16.254l0,0
	c0-13.465,10.916-24.381,24.381-24.381h56.889c8.977,0,16.254,7.277,16.254,16.254v15.275
	C138.159,240.745,137.317,246.756,135.657,252.565z"/>
<rect x="56.889" y="325.08" style="fill:#E6AF78;" width="48.762" height="35.969"/>
<path style="fill:#D29B6E;" d="M56.889,340.008c7.538,3.063,15.757,4.787,24.381,4.787s16.843-1.724,24.381-4.787v-14.929H56.889
	V340.008z"/>
<path style="fill:#D5DCED;" d="M144.856,355.997l-39.208-11.201L81.27,360.974l-24.381-16.179l-39.206,11.202
	C7.216,358.987,0,368.554,0,379.44v59.418c0,4.488,3.639,8.127,8.127,8.127h146.286c4.488,0,8.127-3.639,8.127-8.127V379.44
	C162.54,368.554,155.323,358.987,144.856,355.997z"/>
<polygon style="fill:#AFB9D2;" points="89.397,446.984 73.143,446.984 77.206,361.049 85.333,361.049 "/>
<path style="fill:#F0C087;" d="M81.27,333.206L81.27,333.206c-26.931,0-48.762-21.831-48.762-48.762v-9.521
	c0-4.311,1.712-8.445,4.761-11.493l14.737-14.737c3.121-3.121,7.388-4.915,11.799-4.776c25.979,0.819,48.974,6.385,61.544,18.662
	c3.077,3.005,4.683,7.209,4.683,11.51v10.355C130.032,311.375,108.2,333.206,81.27,333.206z"/>
<path style="fill:#E6AF78;" d="M56.889,276.939c0-9.375,7.873-16.827,17.229-16.23c16.407,1.047,40.751,3.789,55.688,10.973
	c-0.488-3.429-1.961-6.665-4.457-9.104c-12.57-12.277-35.565-17.842-61.544-18.662h-0.001l0,0c-4.41-0.139-8.678,1.656-11.798,4.776
	L37.269,263.43c-3.049,3.048-4.761,7.183-4.761,11.494v9.521c0,22.238,14.9,40.961,35.251,46.824
	c-6.774-8.358-10.87-18.966-10.87-30.57C56.889,300.699,56.889,276.939,56.889,276.939z"/>
<path style="fill:#C7CFE2;" d="M32.508,403.656c0-6.466-2.569-12.668-7.141-17.24l-20.92-20.92C1.651,369.492,0,374.304,0,379.44
	v59.418c0,4.488,3.639,8.127,8.127,8.127h24.381V403.656z"/>
<path style="fill:#959CB5;" d="M85.333,377.303h-8.127c-2.244,0-4.063-1.819-4.063-4.064v-12.19h16.254v12.19
	C89.397,375.483,87.578,377.303,85.333,377.303z"/>
<g>
	<path style="fill:#C7CFE2;" d="M81.27,360.974l-13.775,10.522c-2.373,1.813-5.803,1.086-7.237-1.533l-12.357-22.566l4.974-7.587
		c1.103-1.683,3.454-1.969,4.929-0.601L81.27,360.974z"/>
	<path style="fill:#C7CFE2;" d="M81.27,360.974l13.775,10.522c2.373,1.813,5.803,1.086,7.237-1.533l12.357-22.566l-4.974-7.587
		c-1.103-1.683-3.454-1.969-4.929-0.601L81.27,360.974z"/>
</g>
<path style="fill:#5A4146;" d="M260.064,349.46c53.17,0,100.905-21.741,116.534-29.664c3.187-1.615,4.948-5.069,4.358-8.593
	c-2.522-15.07-9.311-60.208-15.242-140.537c-4.824-65.344-47.301-105.651-105.651-105.651s-100.827,40.307-105.651,105.651
	c-5.93,80.33-12.719,125.467-15.242,140.537c-0.59,3.524,1.171,6.977,4.358,8.593C159.159,327.719,206.894,349.46,260.064,349.46z"
	/>
<path style="fill:#694B4B;" d="M376.598,319.797c3.187-1.616,4.948-5.069,4.358-8.593c-2.522-15.07-9.311-60.208-15.242-140.537
	c-4.824-65.344-47.302-105.651-105.651-105.651c-4.089,0-8.1,0.198-12.025,0.589c-45.422,4.524-52.242,68.666-8.585,81.994
	c0.695,0.212,1.08,0.312,1.08,0.312l16.247,201.468c0.022,0.021,0.036,0.034,0.059,0.055
	C311.294,350.343,360.653,327.879,376.598,319.797z"/>
<path style="fill:#E6AF78;" d="M121.905,438.857v-43.836c0-12.874,7.598-24.535,19.374-29.737l68.462-30.238
	c5.888-2.601,9.687-8.431,9.687-14.868v-35.734h81.27v35.734c0,6.437,3.799,12.268,9.687,14.868l68.462,30.238
	c11.777,5.201,19.374,16.863,19.374,29.737v43.836c0,4.488-3.639,8.127-8.127,8.127H130.032
	C125.543,446.984,121.905,443.346,121.905,438.857z"/>
<path style="fill:#00C3FF;" d="M378.848,365.284l-50.497-22.303c-10.501,27.525-37.074,47.114-68.288,47.114
	s-57.787-19.588-68.288-47.114l-50.497,22.303c-11.776,5.201-19.374,16.863-19.374,29.737v43.836c0,4.488,3.638,8.127,8.127,8.127
	h260.063c4.489,0,8.127-3.639,8.127-8.127v-43.836C398.222,382.147,390.625,370.486,378.848,365.284z"/>
<path style="fill:#D29B6E;" d="M219.429,308c12.383,5.691,26.114,8.952,40.635,8.952s28.252-3.261,40.635-8.952v-23.556h-81.27
	L219.429,308L219.429,308z"/>
<path style="fill:#F0C087;" d="M333.138,186.927c-13.05-11.349-42.348-31.418-92.605-39.016c-6.955-1.052-13.969,2.371-17.063,8.689
	c-5.156,10.527-16.122,27.383-37.897,42.237c-4.322,2.948-6.78,7.964-6.78,13.195v4.613c0,43.286,32.664,81.081,75.86,83.878
	c47.333,3.065,86.68-34.42,86.68-81.094v-14.258C341.333,198.186,338.408,191.51,333.138,186.927z"/>
<path style="fill:#E6AF78;" d="M337.69,192.532c-1.249-2.055-2.697-3.992-4.553-5.605c-13.05-11.35-42.349-31.418-92.605-39.016
	c-6.955-1.052-13.968,2.371-17.063,8.688c-1.243,2.538-2.906,5.495-4.901,8.654c-6.239,9.91-16.413,22.242-32.866,33.493
	c-4.361,2.982-6.91,8.002-6.91,13.285v4.613c0,41.776,30.458,78.339,71.411,83.361c-13.999-14.6-22.649-34.371-22.649-56.195
	v-51.094c0-8.362,6.279-15.344,14.598-16.184C261.691,174.56,298.456,174.391,337.69,192.532z"/>
<g>
	<path style="fill:#00AAF0;" d="M134.06,369.742c-7.547,6.078-12.155,15.293-12.155,25.279v43.836c0,4.488,3.639,8.127,8.127,8.127
		h48.762v-22.409c0-6.466-2.569-12.668-7.141-17.24L134.06,369.742z"/>
	<path style="fill:#00AAF0;" d="M386.067,369.742c7.547,6.078,12.155,15.293,12.155,25.279v43.836c0,4.488-3.639,8.127-8.127,8.127
		h-48.762v-22.409c0-6.466,2.569-12.668,7.141-17.24L386.067,369.742z"/>
</g>
<g>
</g>
<g>
</g>
<g>
</g>
<g>
</g>
<g>
</g>
<g>
</g>
<g>
</g>
<g>
</g>
<g>
</g>
<g>
</g>
<g>
</g>
<g>
</g>
<g>
</g>
<g>
</g>
<g>
</g>
</svg>
