<svg width="15" height="14" viewBox="0 0 15 14" fill="none" xmlns="http://www.w3.org/2000/svg">
<path opacity="0.6" fill-rule="evenodd" clip-rule="evenodd" d="M14.0369 5.34992L12.9531 5.98092C13.0139 6.31222 13.0538 6.65072 13.0538 7.00011C13.0538 7.34934 13.0139 7.68784 12.9531 8.01916L14.0369 8.65011C14.4796 8.90783 14.6312 9.47861 14.3757 9.92502L13.4501 11.5417C13.1945 11.988 12.6284 12.141 12.1857 11.8833L11.0907 11.2459C10.5792 11.6849 9.99763 12.0439 9.35126 12.2747V13.0666C9.35126 13.5821 8.93686 14 8.42558 14H6.57433C6.06321 14 5.64881 13.5821 5.64881 13.0666V12.2747C5.00244 12.0439 4.42091 11.6849 3.90929 11.2459L2.8144 11.8833C2.37163 12.141 1.80553 11.988 1.54993 11.5417L0.624333 9.92502C0.368749 9.47861 0.520445 8.90783 0.963133 8.65011L2.04694 8.01916C1.98619 7.68784 1.9463 7.34934 1.9463 7.00011C1.9463 6.65072 1.98619 6.31222 2.04694 5.98092L0.963133 5.34992C0.520445 5.09223 0.368749 4.52132 0.624333 4.07504L1.54993 2.45842C1.80553 2.01196 2.37163 1.85894 2.8144 2.11677L3.90929 2.75421C4.42091 2.31499 5.00244 1.95618 5.64881 1.72547V0.933408C5.64881 0.417987 6.06321 9.15527e-05 6.57433 9.15527e-05H8.42558C8.93686 9.15527e-05 9.35126 0.417987 9.35126 0.933408V1.72547C9.99763 1.95618 10.5792 2.31499 11.0907 2.75421L12.1857 2.11677C12.6284 1.85894 13.1945 2.01196 13.4501 2.45842L14.3757 4.07504C14.6312 4.52132 14.4796 5.09223 14.0369 5.34992ZM13.3427 4.13746L12.8799 3.32913C12.752 3.10606 12.469 3.02944 12.2477 3.15837L10.9618 3.90701C10.3091 3.16462 9.42702 2.63208 8.42558 2.4271V1.40004C8.42558 1.1423 8.21838 0.933408 7.9628 0.933408H7.0372C6.78152 0.933408 6.57433 1.1423 6.57433 1.40004V2.4271C5.57297 2.63208 4.69094 3.16462 4.0383 3.90701L2.7524 3.15837C2.531 3.02944 2.24796 3.10606 2.12012 3.32913L1.6574 4.13746C1.52956 4.36068 1.60542 4.6462 1.82672 4.77499L3.1178 5.52659C2.96401 5.99078 2.87188 6.48356 2.87188 7.00011C2.87188 7.51652 2.96401 8.00924 3.1178 8.47354L1.82672 9.22507C1.60542 9.35402 1.52956 9.6394 1.6574 9.8626L2.12012 10.6708C2.24796 10.894 2.531 10.9705 2.7524 10.8416L4.03822 10.0931C4.69094 10.8355 5.57297 11.368 6.57433 11.573V12.6001C6.57433 12.8578 6.78152 13.0666 7.0372 13.0666H7.9628C8.21838 13.0666 8.42558 12.8578 8.42558 12.6001V11.573C9.42702 11.368 10.3091 10.8355 10.9618 10.0931L12.2477 10.8416C12.469 10.9705 12.752 10.894 12.8799 10.6708L13.3427 9.8626C13.4705 9.6394 13.3946 9.35402 13.1733 9.22507L11.8822 8.47354C12.0361 8.00924 12.1281 7.51652 12.1281 7.00011C12.1281 6.48356 12.0361 5.99078 11.8822 5.52659L13.1733 4.77499C13.3946 4.6462 13.4705 4.36068 13.3427 4.13746ZM7.5 9.33328C6.22193 9.33328 5.18595 8.28867 5.18595 7.00011C5.18595 5.71127 6.22193 4.66666 7.5 4.66666C8.77798 4.66666 9.81404 5.71127 9.81404 7.00011C9.81404 8.28867 8.77798 9.33328 7.5 9.33328ZM7.5 5.60002C6.73321 5.60002 6.11161 6.22683 6.11161 7.00011C6.11161 7.7732 6.73321 8.39991 7.5 8.39991C8.26678 8.39991 8.88838 7.7732 8.88838 7.00011C8.88838 6.22683 8.26678 5.60002 7.5 5.60002Z" fill="white"/>
</svg>
